<svg xmlns="http://www.w3.org/2000/svg" xmlns:xlink="http://www.w3.org/1999/xlink" width="53" height="52" version="1.1" viewBox="0 0 53 52"><title>1</title><desc>Created with Sketch.</desc><g id="Devices" fill="none" fill-rule="evenodd" stroke="none" stroke-width="1"><g id="Artboard" transform="translate(-67.000000, -159.000000)"><g id="1" transform="translate(67.000000, 159.000000)"><rect id="Rectangle" width="40" height="40" x="7" y="6" fill="#000"/><g id="left" fill="#000" transform="translate(0.000000, 14.000000)"><rect id="carat" width="16" height="16" x="4" y="4" transform="translate(12.000000, 12.000000) rotate(-314.000000) translate(-12.000000, -12.000000)"/></g><g id="bottom" fill="#000" transform="translate(15.000000, 28.000000)"><rect id="carat" width="16" height="16" x="4" y="4" transform="translate(12.000000, 12.000000) rotate(-314.000000) translate(-12.000000, -12.000000)"/></g><g id="right" fill="#000" transform="translate(29.000000, 14.000000)"><rect id="carat" width="16" height="16" x="4" y="4" transform="translate(12.000000, 12.000000) rotate(-314.000000) translate(-12.000000, -12.000000)"/></g><g id="top" fill="#000" transform="translate(16.000000, 0.000000)"><rect id="carat" width="16" height="16" x="3.312" y="4" transform="translate(11.311985, 12.000000) rotate(-314.000000) translate(-11.311985, -12.000000)"/></g><polygon fill="#FFF" fill-rule="nonzero" points="30.255 30.967 24.055 30.967 24.055 29.258 26.085 29.258 26.085 23.153 24 23.604 24 21.854 28.238 21 28.238 29.258 30.255 29.258"/></g></g></g></svg>